<?xml version="1.0" encoding="utf-8"?>
<!-- Generator: Adobe Illustrator 22.0.1, SVG Export Plug-In . SVG Version: 6.00 Build 0)  -->
<svg version="1.1" id="asdf" xmlns="http://www.w3.org/2000/svg" xmlns:xlink="http://www.w3.org/1999/xlink" x="0px" y="0px"
	 viewBox="0 0 2280 560" style="enable-background:new 0 0 2280 560;" xml:space="preserve">
<style type="text/css">
	.st0{fill:#FFFFFF;}
	.st1{fill:#FF5500;}
</style>
<g>
	<path class="st0" d="M928.6,165.1c-3.6,0.1-9.2,1.2-16.8,3.1c-7.6,2-13,4-16.2,6.1c-4.7,3.3-7.8,9.5-9.5,18.8
		c-1.6,9.2-2.4,21-2.4,35.2v202.9h-17l-168-226.8v143c0,16,1,28.3,3,36.9c2,8.6,5.1,14.7,9.3,18.4c3,2.9,9.2,5.5,18.6,8
		c9.4,2.5,15.6,3.8,18.6,3.9v13.9H634.5v-13.9c3.5-0.3,9.4-1.5,17.8-3.8c8.3-2.3,13.5-4.3,15.6-6.2c4.6-3.6,7.7-9.2,9.4-16.7
		c1.7-7.5,2.5-20.3,2.5-38.4V212.9c0-6-1-12-3.1-18c-2.1-6-4.9-10.6-8.4-13.9c-4.7-4.3-11-8-19-11c-8-3.1-14.5-4.7-19.4-5v-13.9H709
		l155.8,211.3V230.7c0-16.1-1-28.5-3.1-37.2c-2.1-8.7-5.1-14.4-9-17.3c-3.6-2.5-9.6-4.9-17.9-7.2c-8.3-2.3-14.6-3.6-18.8-3.9v-13.9
		h112.7V165.1z"/>
	<path class="st0" d="M1205.4,165.1c-2.2,0.1-5.7,1-10.5,2.6c-4.8,1.6-8.3,3.2-10.4,4.8c-5.1,3.1-8.5,5.5-10.4,7.2
		c-1.8,1.7-5.3,6.1-10.5,13.3c-10.2,14.3-19.5,28.8-28.1,43.6c-8.6,14.7-19.3,33.4-32.2,56.1c-4.8,8.3-8,15-9.6,20.1
		s-2.3,12.4-2.3,22.1v52.9c0,4.7,0.9,8.8,2.8,12.2c1.9,3.5,5.1,6.2,9.7,8.3c2.7,1,7.6,2.3,14.6,3.8c7,1.5,12.7,2.3,17,2.4v13.9
		h-129.7v-13.9c3.6-0.3,9.1-0.7,16.4-1.5c7.3-0.7,12.4-1.7,15.2-2.8c4.7-2,7.9-4.6,9.7-8c1.8-3.4,2.6-7.5,2.6-12.5v-67.4
		c0-2.1-1.3-5.9-3.8-11.4c-2.5-5.5-5.6-11.7-9.1-18.5c-7.8-15.1-16.5-31.4-26-49c-9.5-17.6-17.8-32.6-24.8-45.1
		c-4.3-7.4-8.1-13-11.4-16.8c-3.3-3.8-7.1-7.1-11.4-10c-3.1-2-6.9-3.4-11.2-4.5c-4.4-1-8.3-1.7-11.8-2v-13.9h118.3v13.9
		c-13.3,0.3-22.7,1.2-28.1,2.7c-5.5,1.6-8.2,3.8-8.2,6.6c0,0.8,0.4,2.1,1.2,4.1s1.9,4.4,3.3,7.4c1.7,3.4,3.7,7.3,6,11.6
		c2.3,4.4,4.5,8.6,6.6,12.6c6.1,11.6,12.3,23.1,18.7,34.7c6.4,11.5,14.7,26.5,24.9,45c20.4-32.9,36-58.6,46.7-77
		c10.7-18.4,16.1-29.4,16.1-33.1c0-3-1.1-5.4-3.3-7.2c-2.2-1.8-5.1-3.2-8.8-4.3c-3.8-1-7.9-1.7-12.3-2c-4.4-0.3-8.5-0.7-12.3-1.1
		v-13.9h96.4V165.1z"/>
	<path class="st0" d="M1540.6,299.2c8.1,5.5,14.8,12.6,20.1,21.5c5.3,8.9,8,19.6,8,32.2c0,12.9-2.8,24.1-8.4,33.6
		c-5.6,9.5-12.9,17.3-21.9,23.4c-8.7,6-18.6,10.5-29.6,13.7c-11,3.1-22.4,4.7-34.1,4.7h-131.3v-13.9c3.1-0.3,7.7-0.8,13.7-1.7
		c6-0.8,10.3-1.9,12.9-3c4-1.8,6.9-4.3,8.6-7.3c1.7-3.1,2.5-7,2.5-11.8V191.4c0-4.4-0.8-8.3-2.2-11.7c-1.5-3.4-4.5-6.1-8.9-8.2
		c-3.9-2-8.3-3.4-13.1-4.5c-4.8-1-8.9-1.7-12.1-2v-13.9h127.9c9.9,0,19.4,1,28.4,2.9c9,2,17.7,5.4,25.9,10.4
		c7.7,4.6,14,10.7,18.9,18.6c4.9,7.8,7.4,17.3,7.4,28.5c0,9.8-1.8,18.5-5.3,26.1s-8.5,14.2-14.8,19.6c-6,5.2-12.9,9.6-20.6,13.2
		c-7.7,3.6-16.1,6.3-25.1,8.3v1.8c7.9,0.9,16.8,2.9,26.7,6C1524.1,289.5,1532.9,293.8,1540.6,299.2z M1493.3,257.4
		c4.8-5.6,8.1-11.7,10-18.4c1.9-6.7,2.8-14.5,2.8-23.7c0-15.3-4.2-27.2-12.5-35.9c-8.3-8.7-21.4-13-39.4-13c-4.2,0-9.4,0.1-15.7,0.3
		c-6.3,0.2-11.6,0.4-15.9,0.5v106.6h24.7c10.7,0,19.8-1.4,27.4-4.1S1488.7,262.9,1493.3,257.4z M1520.5,345.9
		c0-16.4-5.5-29.9-16.5-40.4c-11-10.5-26.7-15.8-47.2-15.8c-8.3,0-15.4,0.1-21.1,0.3c-5.7,0.2-10,0.4-12.9,0.5v97.7
		c0,8.2,3.3,14.4,10,18.6c6.6,4.2,15.9,6.3,27.7,6.3c19.4,0,34.2-5.7,44.5-17C1515.3,384.6,1520.5,367.9,1520.5,345.9z"/>
	<path class="st0" d="M1902.7,165.1c-3.6,0.1-9,0.9-16,2.3c-7,1.4-12.8,3.6-17.2,6.4c-4.4,3-7.5,9.2-9.2,18.6
		c-1.7,9.4-2.5,20.8-2.5,34.4v120.5c0,15.4-3.2,28.7-9.6,40c-6.4,11.3-14.8,20.6-25.2,27.9c-10.3,7-21.1,12.1-32.5,15.1
		c-11.4,3.1-22.3,4.6-32.7,4.6c-16.7,0-31.5-2.2-44.5-6.5c-13-4.4-24-10.3-32.8-17.7c-8.7-7.4-15.3-15.9-19.7-25.5
		c-4.4-9.6-6.6-19.6-6.6-30V191.4c0-4.6-0.8-8.4-2.2-11.4c-1.5-3.1-4.5-5.9-9.1-8.5c-3.3-1.8-7.4-3.3-12.5-4.4
		c-5.1-1.1-9.2-1.8-12.5-2.1v-13.9h115.4v13.9c-3.6,0.1-8.2,0.7-13.8,1.8c-5.5,1-9.6,2-12.2,2.9c-4.4,1.6-7.4,4.2-8.9,7.8
		c-1.5,3.6-2.2,7.6-2.2,11.9v153c0,7.4,0.8,15.2,2.4,23.3c1.6,8.1,4.8,15.7,9.7,22.7c5.1,7.2,12,13,20.7,17.6
		c8.7,4.6,20.7,6.8,35.9,6.8c14.3,0,26.3-2.3,36-6.8c9.7-4.6,17.3-10.5,22.9-18c5.3-7,9.1-14.4,11.3-22.1c2.2-7.7,3.3-15.4,3.3-23.2
		V229.3c0-14.4-1-26.2-3.1-35.4c-2.1-9.2-5.1-15.2-9.2-18.1c-4.6-3.3-10.8-5.8-18.7-7.6c-7.9-1.8-13.9-2.9-18.1-3.1v-13.9h113.3
		V165.1z"/>
	<path class="st0" d="M2179.2,165.1c-2.2,0.1-5.7,1-10.5,2.6c-4.8,1.6-8.3,3.2-10.4,4.8c-5.1,3.1-8.5,5.5-10.4,7.2
		c-1.8,1.7-5.3,6.1-10.5,13.3c-10.2,14.3-19.5,28.8-28.1,43.6c-8.6,14.7-19.3,33.4-32.2,56.1c-4.8,8.3-8,15-9.6,20.1
		s-2.3,12.4-2.3,22.1v52.9c0,4.7,0.9,8.8,2.8,12.2c1.9,3.5,5.1,6.2,9.7,8.3c2.7,1,7.6,2.3,14.6,3.8c7,1.5,12.7,2.3,17,2.4v13.9
		h-129.7v-13.9c3.6-0.3,9.1-0.7,16.4-1.5c7.3-0.7,12.4-1.7,15.2-2.8c4.7-2,7.9-4.6,9.7-8c1.8-3.4,2.6-7.5,2.6-12.5v-67.4
		c0-2.1-1.3-5.9-3.8-11.4c-2.5-5.5-5.6-11.7-9.1-18.5c-7.8-15.1-16.5-31.4-26-49c-9.5-17.6-17.8-32.6-24.8-45.1
		c-4.3-7.4-8.1-13-11.4-16.8c-3.3-3.8-7.1-7.1-11.4-10c-3.1-2-6.9-3.4-11.2-4.5c-4.4-1-8.3-1.7-11.8-2v-13.9h118.3v13.9
		c-13.3,0.3-22.7,1.2-28.1,2.7c-5.5,1.6-8.2,3.8-8.2,6.6c0,0.8,0.4,2.1,1.2,4.1s1.9,4.4,3.3,7.4c1.7,3.4,3.7,7.3,6,11.6
		c2.3,4.4,4.5,8.6,6.6,12.6c6.1,11.6,12.3,23.1,18.7,34.7c6.4,11.5,14.7,26.5,24.9,45c20.4-32.9,36-58.6,46.7-77
		c10.7-18.4,16.1-29.4,16.1-33.1c0-3-1.1-5.4-3.3-7.2c-2.2-1.8-5.1-3.2-8.8-4.3c-3.8-1-7.9-1.7-12.3-2c-4.4-0.3-8.5-0.7-12.3-1.1
		v-13.9h96.4V165.1z"/>
</g>
<g>
	<polygon class="st0" points="213,299.7 304.5,299.7 258.4,184.5 	"/>
	<path class="st0" d="M499.4,0H60.6C27.1,0,0,27.1,0,60.6v438.8C0,532.9,27.1,560,60.6,560h438.8c33.5,0,60.6-27.1,60.6-60.6V60.6
		C560,27.1,532.9,0,499.4,0z M471.9,428.5H298.4V411c8.1-0.6,17.6-2.1,28.5-4.4c10.9-2.3,16.4-5.2,16.4-8.6c0-1.2-0.1-2.5-0.3-4
		c-0.2-1.5-0.9-3.5-1.9-6.1l-27.2-66h-110c-2.5,6.1-5.3,13.3-8.4,21.6c-3.1,8.2-5.7,15.6-7.9,22c-2.8,8.4-4.5,14.4-5,18.2
		c-0.5,3.7-0.8,6.4-0.8,7.9c0,4.8,3.6,8.9,10.9,12.2c7.3,3.4,19.3,5.8,36.2,7.3v17.5H98.1V411c4.9-0.3,10.5-1.1,16.7-2.4
		c6.2-1.3,11.1-3,14.7-5.3c6.1-3.6,11.3-8,15.6-13.2c4.3-5.2,7.8-11.5,10.7-18.6c17.4-42.1,34.8-84.2,52.2-126.4
		c17.4-42.2,36.7-88.8,57.8-139.7h44.9c29.3,72.1,52.3,129.2,68.9,171.1c16.6,41.9,30.8,76.6,42.4,104.2c1.9,4.5,4.4,8.6,7.4,12.2
		c3,3.7,7.3,7.1,12.8,10.4c4.2,2.4,9.1,4.2,14.6,5.4c5.5,1.2,10.6,1.9,15,2.2V428.5z"/>
</g>
</svg>
